Coordinates
version=1
nRows=9
nColumns=24
inDegrees=yes

Units are S.I. units (second, meters, Newtons, ...)
Angles are in degrees.

endheader
time	pelvis_tilt	pelvis_list	pelvis_rotation	pelvis_tx	pelvis_ty	pelvis_tz	hip_flexion_r	hip_adduction_r	hip_rotation_r	knee_angle_r	ankle_angle_r	subtalar_angle_r	mtp_angle_r	hip_flexion_l	hip_adduction_l	hip_rotation_l	knee_angle_l	ankle_angle_l	subtalar_angle_l	mtp_angle_l	lumbar_extension	lumbar_bending	lumbar_rotation
      5.83000000	      3.20505497	     -3.44833014	     -2.40689453	      1.44058956	      0.90518200	     -0.32375294	     -6.72298540	      7.34507636	     -0.45057955	     -6.31165550	     17.44564988	     -1.57827276	      0.00000000	     23.47652083	      0.55155408	      0.49043626	    -39.33316245	      6.65198449	     -7.30756597	      0.00000000	    -25.69343247	      2.05636838	     -0.56089233
      5.84000000	      3.01768816	     -3.69620908	     -2.68480681	      1.45188851	      0.90401353	     -0.32349459	     -7.71455894	      7.57758727	     -0.07665494	     -5.59204759	     17.47051856	     -1.80099640	      0.00000000	     23.22381300	      0.24765071	      0.67175504	    -34.65662082	      5.63541843	     -8.24305464	      0.00000000	    -25.54705157	      2.28703976	     -0.16723098
      5.85000000	      2.75591588	     -4.03643027	     -3.01484798	      1.46334355	      0.90246708	     -0.32318628	     -8.64693247	      7.90156606	      0.68647726	     -4.89648439	     17.33142523	     -2.43730556	      0.00000000	     22.92504496	     -0.20196290	      0.88977958	    -29.85531743	      4.47007839	     -9.03397795	      0.00000000	    -25.27663460	      2.60380484	      0.34679650
      5.86000000	      2.64254742	     -4.43849900	     -3.34932730	      1.47500180	      0.90089106	     -0.32288724	     -9.68158471	      8.24721422	      1.12047858	     -4.35160296	     17.42238161	     -2.50319340	      0.00000000	     22.38476713	     -0.76944566	      1.01987146	    -25.04185289	      3.38497011	     -9.21045880	      0.00000000	    -25.15516962	      2.96693508	      0.87143987
      5.87000000	      2.45577085	     -4.89804284	     -3.74846305	      1.48683834	      0.89899361	     -0.32253964	    -10.59729228	      8.62490037	      1.62299963	     -3.93835634	     17.60068368	     -2.54422259	      0.00000000	     21.90602155	     -1.45428511	      1.04489558	    -20.37536880	      2.47192905	     -8.85535576	      0.00000000	    -24.90810900	      3.37811086	      1.54876680
      5.88000000	      2.28296219	     -5.41801843	     -4.15591720	      1.49880132	      0.89695303	     -0.32223000	    -11.49397783	      9.03769174	      2.18490228	     -3.64372926	     17.74657036	     -2.53647817	      0.00000000	     21.45075550	     -2.22490876	      0.96620401	    -15.98318506	      1.69019574	     -7.96608115	      0.00000000	    -24.66589081	      3.86265472	      2.21044487
      5.89000000	      2.17329902	     -5.96564877	     -4.57139839	      1.51086879	      0.89488646	     -0.32193151	    -12.47406781	      9.45175966	      3.04665332	     -3.36791266	     17.70418970	     -2.90626584	      0.00000000	     21.02113530	     -3.04196802	      0.64772999	    -12.03268199	      1.33730189	     -6.25790699	      0.00000000	    -24.50315354	      4.36078885	      2.88645314
      5.90000000	      2.09340204	     -6.43833560	     -5.00790434	      1.52305672	      0.89285286	     -0.32167176	    -13.40392436	      9.74876533	      3.74316759	     -3.26272807	     17.82356545	     -2.94453493	      0.00000000	     20.64463566	     -3.77111984	      0.11486509	     -8.56274435	      1.28643124	     -4.02147860	      0.00000000	    -24.35403749	      4.75632252	      3.53342786
      5.91000000	      2.08247684	     -6.84503497	     -5.42314888	      1.53530683	      0.89095257	     -0.32150501	    -14.33559326	      9.94852804	      4.35041666	     -3.29153693	     17.96109538	     -2.89008157	      0.00000000	     20.29976963	     -4.38985252	     -0.51980007	     -5.65131756	      1.48216266	     -1.48659248	      0.00000000	    -24.28950016	      5.07240739	      4.12719231
